# xmcd
#
# Track frame offsets:
#	150
#	19727
#	30057
#	42107
#	59582
#	79312
#	94032
#	107180
#	123782
#	139140
#	153682
#	168302
#	183177
#	197235
#	211102
#	230305
#	243082
#	259175
#	271465
#	286135
#
# Disc length: 3970
#
# Revision: 1
# Processed by: cddbd v1.5.1PL0 Copyright (c) Steve Scherf et al.
# Submitted via: AudioConverter v4.05 Copyright (c) Dennis Rebentrost
# Normalized: r0:TDELIM( - )
#
DISCID=0b0f8014
DTITLE=Various Artist - The Best Country Album In The World ... Ever
DYEAR=1996
DGENRE=Country
TTITLE0=Kenny Rogers - Coward Of The County
TTITLE1=Kris Kristofferson - Help Me Make It Through The Night
TTITLE2=Charlie Rich - The Most Beautiful Girl
TTITLE3=Linda Ronstadt - Blue Bayo
TTITLE4=Marty Robbins - El Paso
TTITLE5=Olivia Newton John - Banks Of The Ohio
TTITLE6=Dr Hook - When You're In Love With A beautiful Woman
TTITLE7=Don McClean - Crying
TTITLE8=Billy Rae Cyrus - Achy Breaky Hart
TTITLE9=Long John Baldry - Let The Heartaches Begin
TTITLE10=Glen Campbell - Rhinestone Cowboy
TTITLE11=Tanya Tucker - Delta Dawn
TTITLE12=Frankie Miller - Darling
TTITLE13=Don Williams - Desperately
TTITLE14=John Wayne - The Wedding
TTITLE15=Lynn Anderson - Rose Garden
TTITLE16=Marie Gibson - One Day At A time
TTITLE17=Hank Thompson - The Wild Side Of Life
TTITLE18=Gene Rockwell - Heart
TTITLE19=Tennessee Ernie Ford - Sixteen Tons
EXTD=
EXTT0=
EXTT1=
EXTT2=
EXTT3=
EXTT4=
EXTT5=
EXTT6=
EXTT7=
EXTT8=
EXTT9=
EXTT10=
EXTT11=
EXTT12=
EXTT13=
EXTT14=
EXTT15=
EXTT16=
EXTT17=
EXTT18=
EXTT19=
PLAYORDER=
